<svg width="86" height="67" viewBox="0 0 86 67" fill="none" xmlns="http://www.w3.org/2000/svg">
<path d="M78.9372 0L86 6.24224C81.4761 10.2188 77.7831 14.0566 74.9211 17.7557C72.1514 21.3623 70.3972 24.0904 69.6586 25.94C68.92 27.7895 68.2276 30.009 67.5813 32.5983L68.1353 33.4306C74.321 33.4306 78.8449 34.7716 81.7069 37.4534C84.569 40.1353 86 44.2968 86 49.9379C86 54.2843 84.4305 58.2146 81.2915 61.7288C78.2448 65.2429 74.4133 67 69.7971 67C64.5346 67 60.1492 65.5204 56.6409 62.5611C53.1326 59.6018 51.3784 54.8392 51.3784 48.2733C51.3784 39.5804 54.0558 30.6101 59.4106 21.3623C64.8578 12.0221 71.3666 4.90131 78.9372 0ZM27.5588 0L34.6216 6.24224C30.0977 10.2188 26.4509 14.0104 23.6812 17.617C20.9114 21.2236 19.1111 23.9979 18.2802 25.94C17.5416 27.882 16.8492 30.1014 16.2029 32.5983L16.7568 33.4306C22.9426 33.4306 27.4665 34.7716 30.3285 37.4534C33.1906 40.1353 34.6216 44.2968 34.6216 49.9379C34.6216 54.2843 33.0521 58.2146 29.913 61.7288C26.8663 65.2429 23.0349 67 18.4187 67C13.1562 67 8.7708 65.5204 5.26248 62.5611C1.75416 59.6018 0 54.8392 0 48.2733C0 39.5804 2.6774 30.6101 8.03221 21.3623C13.4793 12.0221 19.9882 4.90131 27.5588 0Z" fill="#ED3902"/>
</svg>
