<svg width="20" height="20" viewBox="0 0 20 20" fill="none" xmlns="http://www.w3.org/2000/svg">
<path fill-rule="evenodd" clip-rule="evenodd" d="M10.1297 3.75009C13.993 3.80577 17.1625 7.33491 18.75 10.3714C18.75 10.3714 18.1914 11.533 17.6674 12.2765C17.4139 12.6362 17.1472 12.9867 16.8669 13.3256C16.6671 13.5669 16.4607 13.8018 16.2466 14.0301C14.3332 16.0718 11.5853 17.5949 8.68361 17.0036C5.46004 16.3465 2.83055 13.5401 1.25 10.5218C1.25 10.5218 1.81119 9.35914 2.33804 8.61671C2.57406 8.28373 2.82178 7.95966 3.08118 7.64524C3.27994 7.40432 3.486 7.16934 3.69901 6.94105C5.38953 5.131 7.55867 3.73746 10.1297 3.75009V3.75009ZM10.1162 5.23494C7.96422 5.22678 6.17468 6.4477 4.75891 7.96337C4.56637 8.1694 4.38077 8.38173 4.20101 8.59926C3.96462 8.88584 3.73883 9.1817 3.52363 9.48498C3.30844 9.78789 3.08776 10.1702 2.91275 10.4951C4.30623 12.8742 6.39792 15.0231 8.97115 15.5477C11.369 16.0366 13.6068 14.6935 15.1881 13.0063C15.3814 12.8003 15.5681 12.5876 15.7486 12.3697C16.0043 12.0605 16.2477 11.7409 16.4789 11.4123C16.693 11.1083 16.9133 10.7252 17.088 10.4C15.6419 7.94073 13.1677 5.2832 10.1162 5.23494Z" fill="#757688"/>
<path fill-rule="evenodd" clip-rule="evenodd" d="M9.9994 7.47046C11.6161 7.47046 12.9289 8.80423 12.9289 10.4465C12.9289 12.0891 11.6161 13.4225 9.9994 13.4225C8.38305 13.4225 7.07031 12.0891 7.07031 10.4465C7.07031 8.80423 8.38305 7.47046 9.9994 7.47046Z" fill="#757688"/>
</svg>
