<svg width="20" height="20" viewBox="0 0 20 20" fill="none" xmlns="http://www.w3.org/2000/svg">
<g clip-path="url(#clip0_1708_30699)">
<path d="M14.9531 15.3152C15.1477 15.5098 15.4616 15.5223 15.6625 15.3152C15.8697 15.1017 15.8571 14.8004 15.6625 14.6058L5.00893 3.96473C4.81431 3.77012 4.49414 3.76384 4.29953 3.96473C4.11119 4.15307 4.11119 4.47952 4.29953 4.66786L14.9531 15.3152ZM15.5432 13.3941C17.3764 12.1637 18.5378 10.5 18.5378 9.75923C18.5378 8.4911 15.0912 4.37907 9.99986 4.37907C8.93262 4.37907 7.93443 4.56113 7.03041 4.86247L8.75056 6.58262C9.13979 6.42567 9.56041 6.33778 10.0061 6.33778C11.9083 6.33778 13.4464 7.85075 13.4464 9.76551C13.4464 10.205 13.3523 10.6319 13.1828 11.0148L15.5432 13.3941ZM9.99986 15.1457C11.1487 15.1457 12.216 14.9385 13.1576 14.5932L11.4249 12.8605C10.998 13.074 10.5146 13.187 10.0061 13.187C8.09138 13.187 6.56585 11.6238 6.55957 9.76551C6.55957 9.24445 6.67257 8.75477 6.87974 8.32159L4.61342 6.04272C2.66099 7.2983 1.46191 9.01844 1.46191 9.75923C1.46191 11.0336 4.97126 15.1457 9.99986 15.1457ZM12.0088 9.63368C12.0088 8.53504 11.1299 7.64986 10.025 7.64986C9.95592 7.64986 9.88686 7.65614 9.82408 7.66242L11.9962 9.82829C12.0025 9.77179 12.0088 9.70273 12.0088 9.63368ZM7.98465 9.65879C7.98465 10.7574 8.88867 11.6426 9.98103 11.6426C10.0564 11.6426 10.1254 11.6363 10.1945 11.63L7.99721 9.43278C7.99093 9.50812 7.98465 9.58345 7.98465 9.65879Z" fill="#757688"/>
</g>
<defs>
<clipPath id="clip0_1708_30699">
<rect width="20" height="20" fill="white"/>
</clipPath>
</defs>
</svg>
