<svg width="48" height="48" viewBox="0 0 48 48" fill="none" xmlns="http://www.w3.org/2000/svg">
<g clip-path="url(#clip0_813_19719)">
<path d="M23.6559 61.4911C32.5489 61.4911 39.7582 55.9645 39.7582 49.147C39.7582 42.3296 32.5489 36.803 23.6559 36.803C14.7629 36.803 7.55371 42.3296 7.55371 49.147C7.55371 55.9645 14.7629 61.4911 23.6559 61.4911Z" fill="#FDBE6A"/>
<path d="M27.4465 33.6777L26.3801 37.5965C26.3801 37.5965 23.0974 39.2186 19.6701 37.5965L18.6743 35.0493L27.4465 33.6777Z" fill="#F69E9F"/>
<path d="M18.7292 35.1905L18.6714 35.0459L27.2702 34.1433L26.5121 37.1113C23.9649 37.4421 20.7721 36.5717 18.7292 35.1905Z" fill="#252E55"/>
<path d="M42.9743 24.6486C41.9625 23.2288 40.2344 22.2909 39.4378 20.7587C38.7954 19.5221 38.8564 18.0702 39.0491 16.7019C39.2418 15.3335 39.5566 13.9523 39.3735 12.5872C39.123 10.6952 37.851 8.93823 36.0137 8.07739C34.1764 7.21654 31.8219 7.31291 30.097 8.38896C29.5574 8.72623 29.0884 9.15665 28.7158 9.6481C31.9665 9.86973 35.3777 11.8901 36.0715 15.1472C36.7204 18.7126 34.7289 21.8637 31.9054 23.7877C32.0243 24.125 32.1463 24.4623 32.2716 24.7963C31.4589 26.4763 31.6228 29.1519 31.7545 29.8554C31.8862 30.5588 33.7427 31.5706 33.7427 31.5706L33.611 29.926C33.8584 30.6038 34.1635 31.1916 34.5683 31.5931C35.2299 32.2516 36.9709 32.2131 38.0116 32.1231C38.4999 32.0814 38.381 30.3051 38.381 30.3051L39.4249 31.773C40.864 31.3618 43.2891 29.9453 43.6938 28.6091C44.0985 27.2729 43.7934 25.7985 42.9743 24.6486Z" fill="#252E55"/>
<path d="M36.071 15.1439C35.3772 11.8868 31.966 9.86641 28.7153 9.64478C27.8898 10.7208 27.5076 12.086 27.7678 13.3708L29.5087 14.813C30.0612 17.8549 30.8642 20.855 31.9017 23.7844C34.7284 21.8572 36.7167 18.7093 36.071 15.1439Z" fill="#ED3902"/>
<path d="M35.3257 26.5532C33.816 33.1027 26.9261 37.1146 19.9398 35.515C12.9535 33.9153 8.25099 28.4483 9.76068 21.8989C11.2704 15.3494 18.1603 11.3375 25.1466 12.9372C32.1329 14.5368 36.8386 20.0005 35.3257 26.5532Z" fill="#F69E9F"/>
<path d="M22.4647 10.274C22.4647 10.274 10.2909 7.62084 8.14844 21.3076C8.14844 21.3076 8.41504 22.0656 9.60673 21.7316C11.5115 21.1951 16.169 19.7818 16.7408 18.6672C17.3125 17.5526 17.7462 14.3084 17.7462 14.3084L18.5428 19.1651C18.5428 19.1651 26.0783 21.3879 28.3525 19.8429C29.2776 19.0977 28.8953 15.6832 28.8953 15.6832C28.8953 15.6832 32.374 23.2059 35.3934 22.8494C36.2543 22.7498 36.0005 22.798 36.1804 22.0174C37.0412 18.2882 34.8217 14.7228 32.8334 12.7923C30.0517 10.0909 25.5226 9.17871 22.4647 10.274Z" fill="#252E55"/>
<path d="M31.8243 24.6675C31.9978 26.296 29.9388 27.9792 28.3039 28.1558C26.6689 28.3325 24.4173 27.3207 24.247 25.6921C24.0736 24.0636 26.0458 22.4319 27.6775 22.2584C29.3125 22.0818 31.6509 23.039 31.8243 24.6675Z" fill="white"/>
<path d="M20.9934 25.859C20.3317 27.359 17.9098 27.7381 16.4033 27.0764C14.9001 26.4147 13.1752 24.2658 13.8369 22.769C14.4986 21.2689 17.2899 20.9927 18.7931 21.6511C20.2996 22.3096 21.6519 24.3589 20.9934 25.859Z" fill="white"/>
<path d="M15.3685 19.6598C15.3685 19.6598 11.8256 21.0827 12.2496 22.2583C12.6736 23.434 17.3215 21.6159 17.9254 20.7326C18.526 19.8493 17.2187 18.5741 15.3685 19.6598Z" fill="#252E55"/>
<path d="M29.7041 20.6622C29.7041 20.6622 33.1604 22.2811 32.6721 23.431C32.1839 24.5809 27.6452 22.5027 27.0927 21.5905C26.5402 20.675 27.9182 19.4737 29.7041 20.6622Z" fill="#252E55"/>
<path d="M18.9345 24.6641C18.4463 25.8879 17.2225 26.4982 16.5126 25.8719C16.0822 25.4928 15.9923 24.7155 16.2878 23.9735C16.776 22.7497 17.9998 22.1394 18.7097 22.7658C19.1401 23.148 19.2333 23.9221 18.9345 24.6641Z" fill="#1E3A52"/>
<path d="M29.0434 25.525C28.568 26.7553 27.3474 27.3752 26.6247 26.7553C26.1878 26.3795 26.0818 25.6021 26.3709 24.8569C26.8463 23.6267 28.0669 23.0068 28.7896 23.6267C29.2265 24.0025 29.3293 24.7798 29.0434 25.525Z" fill="#1E3A52"/>
<path d="M10.2138 22.5474C10.2138 22.5474 8.76193 20.7422 6.87322 21.783C4.98772 22.8205 5.00378 26.418 7.13983 26.9962C9.27587 27.5744 10.5318 25.4158 10.5318 25.4158L10.2138 22.5474Z" fill="#F69E9F"/>
<path d="M34.6865 24.0025C34.6865 24.0025 36.3503 22.3901 38.0945 23.6524C39.8387 24.9148 39.3761 28.4834 37.1855 28.795C34.9948 29.1065 34.0151 26.8099 34.0151 26.8099L34.6865 24.0025Z" fill="#F69E9F"/>
<path d="M34.9852 27.2468C34.9595 27.2789 35.5345 23.9833 37.6994 24.3495C37.6994 24.3495 36.1126 24.5904 35.8107 26.0294C35.8107 26.0294 37.3782 25.7017 37.5549 26.4245C37.5549 26.4245 36.7004 25.2392 34.9852 27.2468Z" fill="#252E55"/>
<path d="M22.7628 21.7993C22.7628 21.7993 22.1364 25.7663 22.4994 27.761L23.4919 27.3273L23.6525 28.5833L23.7328 26.8905C23.7328 26.8905 22.8013 27.3145 22.8206 27.2534C22.8431 27.1924 22.3773 25.3712 22.7628 21.7993Z" fill="#252E55"/>
<path d="M8.51131 25.9813C8.52415 26.0198 9.25651 22.7563 7.11726 22.2649C7.11726 22.2649 8.48882 23.0968 8.21579 24.5423C8.21579 24.5423 6.89241 23.6365 6.45557 24.2339C6.45557 24.2339 7.70186 23.4694 8.51131 25.9813Z" fill="#252E55"/>
<path d="M31.8439 18.433C28.5836 17.63 25.288 19.5187 24.3179 22.6794C24.2633 22.6633 24.2087 22.6473 24.1509 22.6344C23.4442 22.461 22.7344 22.4128 22.047 22.477C21.8189 19.8817 19.972 17.5979 17.2931 16.9362C13.9204 16.1042 10.5091 18.1535 9.67721 21.5134C8.84206 24.8732 10.8978 28.2716 14.2705 29.1036C17.6432 29.9355 21.0544 27.8862 21.8896 24.5263C21.9859 24.1441 22.0405 23.7619 22.063 23.3796C22.6733 23.3154 23.3061 23.3507 23.9357 23.5081C23.9967 23.5242 24.0577 23.5434 24.1188 23.5595C23.6241 26.733 25.6349 29.8134 28.8213 30.6004C32.194 31.4323 35.6052 29.383 36.4404 26.0232C37.2755 22.6633 35.2166 19.2649 31.8439 18.433ZM14.4921 28.2267C11.6045 27.5136 9.84423 24.6066 10.5605 21.7286C11.2768 18.8538 14.1934 17.0968 17.0811 17.8099C19.9688 18.5229 21.729 21.4299 21.0127 24.3079C20.2964 27.186 17.3766 28.9398 14.4921 28.2267ZM29.0397 29.7235C26.152 29.0104 24.3918 26.1035 25.1081 23.2254C25.8212 20.3506 28.741 18.5936 31.6286 19.3067C34.5163 20.0198 36.2765 22.9267 35.5602 25.8048C34.844 28.6828 31.9242 30.4366 29.0397 29.7235Z" fill="#252E55"/>
<path d="M31.6059 18.0377C28.3456 17.2347 25.05 19.1234 24.0799 22.2841C24.0253 22.2681 23.9707 22.252 23.9129 22.2392C23.2062 22.0657 22.4964 22.0175 21.809 22.0818C21.5809 19.4864 19.734 17.2026 17.0551 16.5409C13.6824 15.709 10.2711 17.7583 9.436 21.1181C8.60085 24.478 10.6566 27.8764 14.0293 28.7083C17.402 29.5402 20.8132 27.4909 21.6484 24.1311C21.7447 23.7488 21.7993 23.3666 21.8218 22.9844C22.4321 22.9201 23.0649 22.9555 23.6945 23.1128C23.7555 23.1289 23.8165 23.1482 23.8776 23.1642C23.3829 26.3378 25.3937 29.4182 28.5801 30.2051C31.9528 31.0371 35.364 28.9878 36.1959 25.6279C37.0343 22.2681 34.9786 18.8697 31.6059 18.0377ZM14.2541 27.8346C11.3665 27.1215 9.60624 24.2146 10.3193 21.3366C11.0356 18.4617 13.9522 16.7047 16.8399 17.4178C19.7275 18.1309 21.4878 21.0378 20.7715 23.9159C20.0584 26.7939 17.1386 28.5477 14.2541 27.8346ZM28.8017 29.3315C25.914 28.6184 24.1538 25.7114 24.8701 22.8334C25.5864 19.9554 28.503 18.2016 31.3906 18.9146C34.2783 19.6277 36.0385 22.5347 35.3223 25.4127C34.606 28.2907 31.6862 30.0445 28.8017 29.3315Z" fill="#8682BE"/>
<path d="M23.4248 30.0251C23.4248 30.0251 25.3521 30.9245 26.4699 29.5593C26.4699 29.5593 25.5608 32.1386 23.4248 30.0251Z" fill="#252E55"/>
<path d="M19.894 13.1361C19.894 13.1361 20.53 11.3374 22.4637 10.2774C22.4637 10.2742 20.3534 10.5279 19.894 13.1361Z" fill="white"/>
</g>
<defs>
<clipPath id="clip0_813_19719">
<rect width="48" height="48" fill="white"/>
</clipPath>
</defs>
</svg>
