<svg width="72" height="20" viewBox="0 0 72 20" fill="none" xmlns="http://www.w3.org/2000/svg">
<g clip-path="url(#clip0_872_21192)">
<path d="M27.6636 2.68676C27.6636 1.92378 28.2773 1.33081 29.0568 1.33081C29.7991 1.33081 30.4128 1.92378 30.4128 2.68676C30.4128 3.44974 29.7991 4.05929 29.0568 4.05929C28.2731 4.05929 27.6636 3.44974 27.6636 2.68676ZM27.9207 5.90039H30.1847V15.0727H27.9207V5.90039Z" fill="#7660FE"/>
<path d="M32.5107 9.10986H38.4902V11.1168H32.5107V9.10986Z" fill="#7660FE"/>
<path d="M42.1974 15.0727V7.79537H40.4351V5.90036H42.1974V3.03918H44.4614V5.90036H46.2445V7.79537H44.4614V15.0768H42.1974V15.0727Z" fill="#ED3902"/>
<path d="M47.0239 10.4863C47.0239 7.60855 48.8982 5.62231 51.5935 5.62231C54.3427 5.62231 56.0885 7.45927 56.0885 10.3204V11.0088L49.1802 11.0254C49.346 12.6426 50.2002 13.4594 51.7055 13.4594C52.9495 13.4594 53.7663 12.9784 54.0276 12.1035H56.1258C55.736 14.1105 54.0649 15.3171 51.6681 15.3171C48.9397 15.313 47.0239 13.3267 47.0239 10.4863ZM49.2341 9.57405H53.841C53.841 8.30933 52.9702 7.47586 51.6142 7.47586C50.2749 7.47586 49.458 8.20152 49.2341 9.57405Z" fill="#ED3902"/>
<path d="M59.3562 12.2859C59.3728 13.0862 59.9699 13.5838 61.0107 13.5838C62.0681 13.5838 62.6445 13.1567 62.6445 12.4891C62.6445 12.0247 62.404 11.6888 61.5871 11.5064L59.9326 11.1166C58.2781 10.7434 57.4819 9.96383 57.4819 8.50007C57.4819 6.70044 59.0037 5.62231 61.1227 5.62231C63.1835 5.62231 64.5768 6.8124 64.5934 8.59545H62.4413C62.4247 7.81588 61.9022 7.31414 61.0314 7.31414C60.1399 7.31414 59.6216 7.72051 59.6216 8.40885C59.6216 8.92718 60.0321 9.26305 60.8117 9.44965L62.4662 9.83943C64.0087 10.1919 64.7883 10.8968 64.7883 12.3108C64.7883 14.1685 63.2084 15.3171 60.9444 15.3171C58.6596 15.3171 57.2124 14.0897 57.2124 12.2901H59.3562V12.2859Z" fill="#ED3902"/>
<path d="M67.3634 15.0728V7.79549H65.6011V5.90048H67.3634V3.03931H69.6275V5.90048H71.4105V7.79549H69.6275V15.077H67.3634V15.0728Z" fill="#ED3902"/>
<path d="M3.53051 6.88976C1.58221 6.88976 0 5.35268 0 3.45996C0 1.56723 1.58221 0.0301514 3.53051 0.0301514C5.4788 0.0301514 7.06101 1.56723 7.06101 3.45996C7.06101 5.35268 5.4788 6.88976 3.53051 6.88976Z" fill="#7660FE"/>
<path d="M7.91113 6.87769V3.4298C7.91113 1.53708 9.49335 0 11.4478 0H24.0001V6.87769H7.91113Z" fill="url(#paint0_linear_872_21192)"/>
<path d="M22.8896 19.9099H15.7852V13.0081" fill="#7660FE"/>
<path d="M14.978 6.86564C14.978 6.86564 15.2014 0 22.8643 0H14.978V6.86564Z" fill="url(#paint1_linear_872_21192)"/>
<path d="M14.978 19.8856C11.0752 19.8856 7.91701 16.8115 7.91701 13.026V3.4298C7.91081 1.53708 9.49302 0 11.4475 0H14.978V19.8856Z" fill="url(#paint2_linear_872_21192)"/>
</g>
<defs>
<linearGradient id="paint0_linear_872_21192" x1="12.7332" y1="3.43794" x2="23.6108" y2="3.43794" gradientUnits="userSpaceOnUse">
<stop offset="0.207" stop-color="#730B16"/>
<stop offset="0.3068" stop-color="#921C1B"/>
<stop offset="0.4356" stop-color="#B42E21"/>
<stop offset="0.5679" stop-color="#CE3C25"/>
<stop offset="0.7034" stop-color="#E04629"/>
<stop offset="0.8441" stop-color="#EB4C2A"/>
<stop offset="0.998" stop-color="#EF4E2B"/>
</linearGradient>
<linearGradient id="paint1_linear_872_21192" x1="18.92" y1="-0.240448" x2="18.92" y2="19.0933" gradientUnits="userSpaceOnUse">
<stop offset="0.00372439" stop-color="#F79945"/>
<stop offset="0.9943" stop-color="#EF4E2B"/>
</linearGradient>
<linearGradient id="paint2_linear_872_21192" x1="11.4447" y1="-0.240448" x2="11.4447" y2="19.0933" gradientUnits="userSpaceOnUse">
<stop offset="0.00372439" stop-color="#F79945"/>
<stop offset="0.9943" stop-color="#EF4E2B"/>
</linearGradient>
<clipPath id="clip0_872_21192">
<rect width="72" height="20" fill="white"/>
</clipPath>
</defs>
</svg>
