<svg width="144" height="40" viewBox="0 0 144 40" fill="none" xmlns="http://www.w3.org/2000/svg">
<path d="M55.3271 5.37352C55.3271 3.84756 56.5546 2.66162 58.1137 2.66162C59.5982 2.66162 60.8256 3.84756 60.8256 5.37352C60.8256 6.89947 59.5982 8.11858 58.1137 8.11858C56.5463 8.11858 55.3271 6.89947 55.3271 5.37352ZM55.8413 11.8008H60.3694V30.1455H55.8413V11.8008Z" fill="#7C68EE"/>
<path d="M65.022 18.2197H76.9808V22.2337H65.022V18.2197Z" fill="#7C68EE"/>
<path d="M84.3948 30.1452V15.5905H80.8701V11.8005H84.3948V6.07812H88.9229V11.8005H92.489V15.5905H88.9229V30.1534H84.3948V30.1452Z" fill="#ED3902"/>
<path d="M94.0479 20.9726C94.0479 15.2171 97.7964 11.2446 103.187 11.2446C108.685 11.2446 112.177 14.9185 112.177 20.6409V22.0176L98.3603 22.0507C98.6921 25.2851 100.4 26.9189 103.411 26.9189C105.899 26.9189 107.533 25.9569 108.055 24.207H112.252C111.472 28.2209 108.13 30.6343 103.336 30.6343C97.8793 30.626 94.0479 26.6535 94.0479 20.9726ZM98.4682 19.1481H107.682C107.682 16.6187 105.94 14.9517 103.228 14.9517C100.55 14.9517 98.916 16.403 98.4682 19.1481Z" fill="#ED3902"/>
<path d="M118.712 24.5719C118.746 26.1725 119.94 27.1677 122.021 27.1677C124.136 27.1677 125.289 26.3135 125.289 24.9783C125.289 24.0494 124.808 23.3777 123.174 23.0128L119.865 22.2332C116.556 21.4868 114.964 19.9277 114.964 17.0001C114.964 13.4009 118.007 11.2446 122.245 11.2446C126.367 11.2446 129.154 13.6248 129.187 17.1909H124.883C124.849 15.6318 123.804 14.6283 122.063 14.6283C120.28 14.6283 119.243 15.441 119.243 16.8177C119.243 17.8544 120.064 18.5261 121.623 18.8993L124.932 19.6789C128.017 20.3838 129.577 21.7936 129.577 24.6216C129.577 28.337 126.417 30.6343 121.889 30.6343C117.319 30.6343 114.425 28.1795 114.425 24.5802H118.712V24.5719Z" fill="#ED3902"/>
<path d="M134.727 30.1452V15.5905H131.202V11.8005H134.727V6.07812H139.255V11.8005H142.821V15.5905H139.255V30.1534H134.727V30.1452Z" fill="#ED3902"/>
<path d="M7.06101 13.7798C3.16443 13.7798 0 10.7056 0 6.92016C0 3.13471 3.16443 0.0605469 7.06101 0.0605469C10.9576 0.0605469 14.122 3.13471 14.122 6.92016C14.122 10.7056 10.9576 13.7798 7.06101 13.7798Z" fill="#7C68EE"/>
<path d="M15.8223 13.7554V6.85961C15.8223 3.07417 18.9867 0 22.8957 0H48.0001V13.7554H15.8223Z" fill="url(#paint0_linear_751_10120)"/>
<path d="M45.7787 39.8197H31.5698V26.0161" fill="#7C68EE"/>
<path d="M29.9565 13.7313C29.9565 13.7313 30.4033 0 45.729 0H29.9565V13.7313Z" fill="url(#paint1_linear_751_10120)"/>
<path d="M29.9565 39.7713C22.151 39.7713 15.8345 33.6229 15.8345 26.0521V6.85961C15.8221 3.07417 18.9865 0 22.8955 0H29.9565V39.7713Z" fill="url(#paint2_linear_751_10120)"/>
<defs>
<linearGradient id="paint0_linear_751_10120" x1="25.4664" y1="6.87588" x2="47.2216" y2="6.87588" gradientUnits="userSpaceOnUse">
<stop offset="0.207" stop-color="#730B16"/>
<stop offset="0.3068" stop-color="#921C1B"/>
<stop offset="0.4356" stop-color="#B42E21"/>
<stop offset="0.5679" stop-color="#CE3C25"/>
<stop offset="0.7034" stop-color="#E04629"/>
<stop offset="0.8441" stop-color="#EB4C2A"/>
<stop offset="0.998" stop-color="#EF4E2B"/>
</linearGradient>
<linearGradient id="paint1_linear_751_10120" x1="37.8406" y1="-0.480896" x2="37.8406" y2="38.1866" gradientUnits="userSpaceOnUse">
<stop offset="0.00372439" stop-color="#F79945"/>
<stop offset="0.9943" stop-color="#EF4E2B"/>
</linearGradient>
<linearGradient id="paint2_linear_751_10120" x1="22.8899" y1="-0.480896" x2="22.8899" y2="38.1866" gradientUnits="userSpaceOnUse">
<stop offset="0.00372439" stop-color="#F79945"/>
<stop offset="0.9943" stop-color="#EF4E2B"/>
</linearGradient>
</defs>
</svg>
