<svg width="16" height="16" viewBox="0 0 16 16" fill="none" xmlns="http://www.w3.org/2000/svg">
<path d="M13.5 8.66659H2.5C2.224 8.66659 2 8.36859 2 7.99992C2 7.63125 2.224 7.33325 2.5 7.33325H13.5C13.776 7.33325 14 7.63125 14 7.99992C14 8.36859 13.776 8.66659 13.5 8.66659Z" fill="#ED3902"/>
<path d="M13.5 3.99996H8C7.724 3.99996 7.5 3.70196 7.5 3.33329C7.5 2.96463 7.724 2.66663 8 2.66663H13.5C13.776 2.66663 14 2.96463 14 3.33329C14 3.70196 13.776 3.99996 13.5 3.99996Z" fill="#ED3902"/>
<path d="M8 13.3333H2.5C2.224 13.3333 2 13.0353 2 12.6667C2 12.298 2.224 12 2.5 12H8C8.276 12 8.5 12.298 8.5 12.6667C8.5 13.0353 8.276 13.3333 8 13.3333Z" fill="#ED3902"/>
</svg>
