<svg width="16" height="20" viewBox="0 0 16 20" fill="none" xmlns="http://www.w3.org/2000/svg">
<path d="M0 10C0 5.59375 3.5625 2 8 2C12.4062 2 16 5.59375 16 10C16 14.4375 12.4062 18 8 18C3.5625 18 0 14.4375 0 10ZM11.5938 8.625C11.9375 8.28125 11.9375 7.75 11.5938 7.40625C11.25 7.0625 10.7188 7.0625 10.375 7.40625L7 10.7812L5.59375 9.40625C5.25 9.0625 4.71875 9.0625 4.375 9.40625C4.03125 9.75 4.03125 10.2812 4.375 10.625L6.375 12.625C6.71875 12.9688 7.25 12.9688 7.59375 12.625L11.5938 8.625Z" fill="#6DC27A"/>
</svg>
