<svg width="22" height="20" viewBox="0 0 22 20" fill="none" xmlns="http://www.w3.org/2000/svg">
<path d="M21.1953 5.38281C20.9609 4.44531 20.2188 3.70312 19.3203 3.46875C17.6406 3 11 3 11 3C11 3 4.32031 3 2.64062 3.46875C1.74219 3.70312 1 4.44531 0.765625 5.38281C0.296875 7.02344 0.296875 10.5391 0.296875 10.5391C0.296875 10.5391 0.296875 14.0156 0.765625 15.6953C1 16.6328 1.74219 17.3359 2.64062 17.5703C4.32031 18 11 18 11 18C11 18 17.6406 18 19.3203 17.5703C20.2188 17.3359 20.9609 16.6328 21.1953 15.6953C21.6641 14.0156 21.6641 10.5391 21.6641 10.5391C21.6641 10.5391 21.6641 7.02344 21.1953 5.38281ZM8.8125 13.7031V7.375L14.3594 10.5391L8.8125 13.7031Z" fill="#FF3333"/>
</svg>
